HIERARCHY
ROOT Hips
{
	OFFSET 0.000000 0.000000 0.000000
	CHANNELS 6 Xposition Yposition Zposition Xrotation Yrotation Zrotation
	JOINT LeftUpLeg_virtual
	{
		OFFSET 0.000000 0.000000 0.000000
		CHANNELS 3 Xrotation Yrotation Zrotation
		JOINT LeftUpLeg
		{
			OFFSET 15.427100 -6.655098 0.678600
			CHANNELS 3 Xrotation Yrotation Zrotation
			JOINT LeftLeg
			{
				OFFSET 4.081073 -39.591068 13.024000
				CHANNELS 3 Xrotation Yrotation Zrotation
				JOINT LeftFoot
				{
					OFFSET -4.081074 -37.707932 -15.979700
					CHANNELS 3 Xrotation Yrotation Zrotation
					JOINT LeftToeBase
					{
						OFFSET 5.346399 -15.068900 20.645000
						CHANNELS 3 Xrotation Yrotation Zrotation
						JOINT LeftToe_End
						{
							OFFSET 2.754700 0.931300 11.300900
							CHANNELS 3 Xrotation Yrotation Zrotation
							End Site
							{
								OFFSET 0 0 0
							}
						}
					}
				}
			}
		}
	}
	JOINT RightUpLeg_virtual
	{
		OFFSET 0.000000 0.000000 0.000000
		CHANNELS 3 Xrotation Yrotation Zrotation
		JOINT RightUpLeg
		{
			OFFSET -15.569500 -6.655098 0.678600
			CHANNELS 3 Xrotation Yrotation Zrotation
			JOINT RightLeg
			{
				OFFSET -4.081825 -39.591045 13.023800
				CHANNELS 3 Xrotation Yrotation Zrotation
				JOINT RightFoot
				{
					OFFSET 4.081824 -37.707954 -15.979600
					CHANNELS 3 Xrotation Yrotation Zrotation
					JOINT RightToeBase
					{
						OFFSET -5.346400 -15.068900 20.645000
						CHANNELS 3 Xrotation Yrotation Zrotation
						JOINT RightToe_End
						{
							OFFSET -2.754700 0.931300 11.300900
							CHANNELS 3 Xrotation Yrotation Zrotation
							End Site
							{
								OFFSET 0 0 0
							}
						}
					}
				}
			}
		}
	}
	JOINT Spine_virtual
	{
		OFFSET 0.000000 0.000000 0.000000
		CHANNELS 3 Xrotation Yrotation Zrotation
		JOINT Spine
		{
			OFFSET -0.279200 12.230698 -2.892100
			CHANNELS 3 Xrotation Yrotation Zrotation
			JOINT Spine1
			{
				OFFSET -0.232667 10.192268 -1.242267
				CHANNELS 3 Xrotation Yrotation Zrotation
				JOINT Spine1_split
				{
					OFFSET -0.232667 10.192268 -1.242267
					CHANNELS 3 Xrotation Yrotation Zrotation
					JOINT Spine2
					{
						OFFSET -0.232667 10.192268 -1.242267
						CHANNELS 3 Xrotation Yrotation Zrotation
						JOINT Neck_virtual
						{
							OFFSET 0.000000 0.000000 0.000000
							CHANNELS 3 Xrotation Yrotation Zrotation
							JOINT Neck
							{
								OFFSET -0.418800 17.814194 8.416900
								CHANNELS 3 Xrotation Yrotation Zrotation
								JOINT Head
								{
									OFFSET 0.000000 7.031097 3.806800
									CHANNELS 3 Xrotation Yrotation Zrotation
									JOINT HeadTop_End
									{
										OFFSET 0.000000 24.646606 12.978600
										CHANNELS 3 Xrotation Yrotation Zrotation
										End Site
										{
											OFFSET 0 0 0
										}
									}
								}
							}
						}
						JOINT LeftShoulder_virtual
						{
							OFFSET 0.000000 0.000000 0.000000
							CHANNELS 3 Xrotation Yrotation Zrotation
							JOINT LeftShoulder
							{
								OFFSET 8.476499 7.247704 -3.868750
								CHANNELS 3 Xrotation Yrotation Zrotation
								JOINT LeftShoulder_split
								{
									OFFSET 8.476499 7.247704 -3.868750
									CHANNELS 3 Xrotation Yrotation Zrotation
									JOINT LeftArm
									{
										OFFSET 9.308998 -2.777710 0.208600
										CHANNELS 3 Xrotation Yrotation Zrotation
										JOINT LeftForeArm
										{
											OFFSET 29.972298 0.000000 0.000000
											CHANNELS 3 Xrotation Yrotation Zrotation
											JOINT LeftHand
											{
												OFFSET 26.026505 0.000000 0.000000
												CHANNELS 3 Xrotation Yrotation Zrotation
												End Site
												{
													OFFSET 0 0 0
												}
											}
										}
									}
								}
							}
						}
						JOINT RightShoulder_virtual
						{
							OFFSET 0.000000 0.000000 0.000000
							CHANNELS 3 Xrotation Yrotation Zrotation
							JOINT RightShoulder
							{
								OFFSET -7.570500 7.247704 -3.868750
								CHANNELS 3 Xrotation Yrotation Zrotation
								JOINT RightShoulder_split
								{
									OFFSET -7.570500 7.247704 -3.868750
									CHANNELS 3 Xrotation Yrotation Zrotation
									JOINT RightArm
									{
										OFFSET -9.308998 -2.777710 0.208500
										CHANNELS 3 Xrotation Yrotation Zrotation
										JOINT RightForeArm
										{
											OFFSET -29.972300 0.000000 0.000000
											CHANNELS 3 Xrotation Yrotation Zrotation
											JOINT RightHand
											{
												OFFSET -26.026505 0.000000 0.000000
												CHANNELS 3 Xrotation Yrotation Zrotation
												End Site
												{
													OFFSET 0 0 0
												}
											}
										}
									}
								}
							}
						}
					}
				}
			}
		}
	}
}
MOTION
Frames: 11
Frame Time: 0.03333333
6.889647 77.302284 -11.465794 0.000000 0.000000 0.000000 -6.302311 18.218047 0.791983 -18.710656 -2.683259 17.418651 49.239086 -1.755945 -1.369621 -19.445774 5.497539 -18.368486 -3.369277 -4.829885 2.066015 0.000000 0.000000 0.000000 -6.172766 16.949586 0.747822 -13.190250 -8.627421 -11.917776 48.521616 8.915006 -1.372569 -28.341472 -21.793976 18.841814 6.623619 7.141205 -15.327602 0.000000 0.000000 0.000000 -6.629730 23.129310 0.833915 14.045716 -0.639604 2.734158 4.559567 -5.694110 -0.432023 0.251780 -0.153777 0.179047 0.000000 0.000000 0.000000 6.279792 -3.221683 -0.713267 26.280234 19.560992 2.404644 -43.895566 19.088741 9.428069 0.000000 0.000000 0.000000 5.033575 -5.003742 -0.457152 3.701005 -0.025487 -12.434498 9.111317 -6.749744 -6.148997 -23.232479 -10.701563 -44.877017 57.113526 -55.160420 53.846111 0.000000 0.000000 0.000000 4.772446 -5.526593 -1.199850 3.968808 -8.205743 17.900536 11.123871 2.572211 8.729546 -25.505489 19.522205 62.279605 39.226231 85.050663 -43.462748 0.000000 0.000000 0.000000 
6.790215 77.274948 -11.342480 0.000000 0.000000 0.000000 -6.493489 17.892346 0.742228 -18.743508 -2.361924 17.554418 49.218459 -1.840644 -1.278843 -19.869492 5.319271 -18.303881 -3.367769 -4.855621 2.242709 0.000000 0.000000 0.000000 -6.461645 16.867391 0.716443 -13.248756 -8.993173 -12.004166 48.652185 8.938027 -1.223280 -28.406953 -21.701191 18.691776 7.316062 7.088059 -15.392535 0.000000 0.000000 0.000000 -6.765792 23.091635 0.801163 14.365840 -0.662213 2.611486 4.674261 -5.515219 -0.107371 0.196233 -0.092366 0.136480 0.000000 0.000000 0.000000 6.135357 -3.048767 -0.568112 26.036628 19.326596 2.490637 -44.023291 17.048033 9.893610 0.000000 0.000000 0.000000 5.206048 -4.863357 -0.413231 3.960875 0.155818 -12.483421 8.948720 -4.828655 -6.601571 -24.313122 -11.440868 -47.769305 54.710973 -53.554192 51.528634 0.000000 0.000000 0.000000 4.946878 -5.247002 -1.024630 3.813995 -8.419419 17.100666 10.495468 0.393394 9.332033 -24.749465 20.557097 61.361149 23.945439 83.134617 -28.163056 0.000000 0.000000 0.000000 
6.740335 77.340607 -11.179699 0.000000 0.000000 0.000000 -6.802433 17.743373 0.691674 -18.812573 -2.038958 17.605216 49.406395 -1.918196 -1.018910 -20.155854 5.056827 -18.683897 -3.172255 -4.851176 2.398495 0.000000 0.000000 0.000000 -6.795398 16.860334 0.665351 -13.094956 -9.491542 -12.050688 48.543227 9.073558 -1.117242 -28.174351 -21.509454 18.839878 7.315936 7.102652 -15.358112 0.000000 0.000000 0.000000 -7.098787 23.019939 0.693761 14.954670 -0.754332 2.126408 4.905585 -5.076889 0.204368 0.138057 -0.145784 -0.003985 0.000000 0.000000 0.000000 5.978319 -2.602420 -0.442460 25.107903 18.799548 2.829756 -43.722988 12.490918 9.908532 0.000000 0.000000 0.000000 5.373291 -4.504844 -0.404588 3.986002 0.097175 -12.168902 8.313507 -3.560438 -5.514610 -24.298200 -12.391238 -50.342719 50.548048 -52.499146 47.809948 0.000000 0.000000 0.000000 5.230980 -4.661728 -0.792732 3.691796 -8.134442 15.904823 8.132158 -0.472268 8.770721 -22.360021 21.183588 60.769962 16.206442 80.408286 -20.505184 0.000000 0.000000 0.000000 
6.751194 77.543243 -10.993473 0.000000 0.000000 0.000000 -7.179869 17.969092 0.731832 -18.768342 -1.742165 17.459917 49.503739 -1.831495 -0.670682 -20.221905 4.829645 -19.208913 -2.918904 -4.818429 2.513920 0.000000 0.000000 0.000000 -7.010776 16.994921 0.650271 -12.552223 -10.018350 -11.999013 48.136701 9.205662 -1.059745 -27.957882 -21.290036 18.894427 6.776796 7.163000 -15.190307 0.000000 0.000000 0.000000 -7.580228 23.027850 0.570979 15.675421 -0.954383 1.374410 5.157260 -4.462223 0.431973 0.138480 -0.316383 -0.063320 0.000000 0.000000 0.000000 5.817417 -2.000456 -0.349186 23.739367 17.976038 3.309725 -42.828957 6.008940 9.285782 0.000000 0.000000 0.000000 5.442387 -3.965800 -0.417947 3.822694 -0.004468 -11.201452 7.748498 -3.159038 -3.369503 -23.172535 -13.883605 -51.551064 46.090383 -52.760633 43.943323 0.000000 0.000000 0.000000 5.541551 -3.917995 -0.577938 3.638249 -7.420402 14.441487 5.570293 -0.114721 7.492968 -17.827332 21.368412 59.811345 15.047125 79.225905 -19.195241 0.000000 0.000000 0.000000 
6.813010 77.955589 -10.764862 0.000000 0.000000 0.000000 -7.585870 18.500498 0.901768 -18.523084 -1.528720 17.055356 49.239206 -1.525083 -0.304369 -19.935435 4.723078 -19.653835 -2.672249 -4.761314 2.559334 0.000000 0.000000 0.000000 -7.104874 17.336092 0.732957 -11.622297 -10.504938 -11.862622 47.363008 9.239368 -1.044611 -27.834582 -21.110892 18.622900 6.206089 7.214450 -14.911297 0.000000 0.000000 0.000000 -8.192639 23.101628 0.507179 16.359410 -1.340666 0.508550 5.315900 -3.776888 0.523979 0.129671 -0.527883 -0.031324 0.000000 0.000000 0.000000 5.729424 -1.360269 -0.296105 22.388911 16.918397 3.836176 -41.235085 -1.267263 7.988921 0.000000 0.000000 0.000000 5.383217 -3.334391 -0.434472 3.586112 0.080450 -9.529314 7.005184 -2.666854 -1.818159 -20.369494 -16.210815 -50.513374 41.832016 -54.889012 40.394582 0.000000 0.000000 0.000000 5.812542 -3.172459 -0.418266 3.651489 -6.429384 12.750263 3.717280 0.877632 5.710575 -11.077167 21.292614 57.643177 16.791725 79.642062 -20.422387 0.000000 0.000000 0.000000 
6.903973 78.595039 -10.514748 0.000000 0.000000 0.000000 -7.911411 19.105461 1.220393 -18.014086 -1.459261 16.411059 48.434688 -1.024997 0.020451 -19.359843 4.727325 -19.795623 -2.456443 -4.702560 2.518199 0.000000 0.000000 0.000000 -7.128525 17.870232 0.949659 -10.540881 -10.921052 -11.729113 46.307030 9.206763 -1.025836 -27.578852 -20.981793 18.215676 5.816361 7.252508 -14.578265 0.000000 0.000000 0.000000 -8.795667 23.238602 0.597016 16.795275 -1.948850 -0.292348 5.318322 -3.138687 0.506226 0.100711 -0.681386 0.013387 0.000000 0.000000 0.000000 5.676855 -0.748055 -0.260204 21.330003 15.783966 4.366767 -38.956343 -8.552466 5.909415 0.000000 0.000000 0.000000 5.207706 -2.685156 -0.416638 3.388679 0.355433 -7.275562 6.235994 -2.534153 -1.131630 -15.459042 -18.962350 -46.424628 37.848766 -58.755377 37.080752 0.000000 0.000000 0.000000 5.924472 -2.542260 -0.346765 3.717802 -5.335758 10.885691 2.584935 2.098902 3.656391 -2.825026 20.289827 53.191454 17.609005 80.174632 -20.457475 0.000000 0.000000 0.000000 
7.064229 79.399551 -10.278164 0.000000 0.000000 0.000000 -8.154452 19.579067 1.624573 -17.318616 -1.513794 15.716467 47.189657 -0.478839 0.263551 -18.537849 4.735718 -19.688606 -2.318862 -4.656029 2.414097 0.000000 0.000000 0.000000 -7.143750 18.448297 1.283042 -9.480607 -11.278847 -11.664705 44.977431 9.215196 -1.032813 -27.064809 -20.873801 18.044573 5.437467 7.330001 -14.295609 0.000000 0.000000 0.000000 -9.302471 23.524857 0.839734 16.892110 -2.752033 -0.929771 5.224138 -2.614760 0.400592 0.106006 -0.668917 0.075275 0.000000 0.000000 0.000000 5.623384 -0.254290 -0.169588 20.753801 14.500748 4.978842 -36.320897 -15.427010 3.165530 0.000000 0.000000 0.000000 4.991395 -2.082454 -0.396627 3.378694 0.688327 -4.614879 5.896487 -3.823577 -1.021402 -8.178689 -20.908450 -39.072268 34.008905 -63.459452 33.754692 0.000000 0.000000 0.000000 5.805309 -2.042926 -0.292042 3.724428 -4.114502 8.948186 2.362319 2.899128 1.693015 4.736930 17.763640 46.908079 13.091205 79.205537 -15.198394 0.000000 0.000000 0.000000 
7.306749 80.260818 -10.092106 0.000000 0.000000 0.000000 -8.306517 19.833597 1.978578 -16.657879 -1.689602 15.132901 45.818808 -0.103387 0.417776 -17.556217 4.622216 -19.558189 -2.462774 -4.632151 2.310638 0.000000 0.000000 0.000000 -7.153827 18.965967 1.600562 -8.586628 -11.575159 -11.647258 43.450672 9.325017 -1.107548 -26.383054 -20.762151 18.274086 5.011846 7.471848 -14.160628 0.000000 0.000000 0.000000 -9.579304 23.765440 1.055139 16.684527 -3.617034 -1.308882 5.128827 -2.199098 0.273244 0.158686 -0.533796 0.088036 0.000000 0.000000 0.000000 5.477042 0.106008 0.011080 20.597412 13.084785 5.733414 -33.713892 -21.531213 0.028024 0.000000 0.000000 0.000000 4.799376 -1.617768 -0.427108 3.607386 0.981928 -1.901207 5.520080 -5.884789 -1.016566 -0.271118 -20.518836 -29.806969 29.804900 -67.334272 29.688503 0.000000 0.000000 0.000000 5.496473 -1.615809 -0.224954 3.614526 -3.023370 7.105916 2.804596 3.545598 0.310450 8.371350 13.797245 39.919239 5.039401 76.202126 -6.792929 0.000000 0.000000 0.000000 
7.630319 80.964485 -10.027588 0.000000 0.000000 0.000000 -8.349742 19.884655 2.173969 -16.250197 -2.026435 14.756287 44.744180 0.015755 0.476092 -16.657587 4.338761 -19.465733 -2.965505 -4.631139 2.223864 0.000000 0.000000 0.000000 -7.181206 19.382171 1.777220 -7.974262 -11.774159 -11.598173 42.130492 9.496961 -1.233268 -25.827501 -20.683843 18.684218 4.824248 7.655603 -14.189446 0.000000 0.000000 0.000000 -9.524599 23.801519 1.073816 16.295201 -4.325411 -1.407449 5.160270 -1.890307 0.185191 0.220941 -0.261147 0.079013 0.000000 0.000000 0.000000 5.325284 0.366572 0.264462 20.702464 11.469365 6.649833 -31.685234 -26.680841 -3.220024 0.000000 0.000000 0.000000 4.732343 -1.246795 -0.500472 4.006037 1.004653 0.692745 5.565180 -7.942777 -0.535466 4.249182 -17.550632 -21.184446 25.902133 -69.755213 25.483630 0.000000 0.000000 0.000000 5.101534 -1.250723 -0.155988 3.320572 -2.383946 5.754691 3.862929 3.605233 -0.920512 5.420596 9.415576 33.518706 -3.191500 73.362078 1.325766 0.000000 0.000000 0.000000 
7.950486 81.316116 -10.185623 0.000000 0.000000 0.000000 -8.378186 19.731763 2.145022 -16.246271 -2.499381 14.656445 44.329396 -0.072395 0.498982 -16.070397 3.920865 -19.421709 -3.698779 -4.629886 2.125503 0.000000 0.000000 0.000000 -7.271472 19.634740 1.763352 -7.824592 -11.796216 -11.455387 41.451902 9.664281 -1.374503 -25.639451 -20.711333 19.018404 5.060647 7.824841 -14.351387 0.000000 0.000000 0.000000 -9.164017 23.712556 0.821807 15.945276 -4.697716 -1.287310 5.434592 -1.621424 0.147522 0.251212 -0.013671 0.079312 0.000000 0.000000 0.000000 5.394336 0.586342 0.507098 21.066703 9.641649 7.745229 -30.507839 -30.639173 -6.231616 0.000000 0.000000 0.000000 4.894494 -0.905336 -0.595621 4.466443 0.636126 3.115676 5.731823 -9.130085 0.097966 2.033446 -13.449687 -15.106398 23.389959 -71.058385 22.444246 0.000000 0.000000 0.000000 4.851199 -0.927725 -0.125835 2.856603 -2.282347 5.192111 5.011389 3.578052 -1.414512 -5.520844 5.964922 29.073977 -13.071135 73.569600 10.903833 0.000000 0.000000 0.000000 
8.208721 81.104881 -10.624737 0.000000 0.000000 0.000000 -8.456081 19.312872 1.926396 -16.710534 -3.081231 14.801816 44.788925 -0.237440 0.517265 -16.030205 3.460403 -19.287346 -4.420898 -4.620851 1.945632 0.000000 0.000000 0.000000 -7.472365 19.767483 1.565092 -8.321333 -11.584482 -11.294877 41.949215 9.796730 -1.490784 -25.818494 -20.896610 19.166569 5.470937 7.957374 -14.539195 0.000000 0.000000 0.000000 -8.726369 23.514724 0.440183 15.777638 -4.620206 -1.033030 5.993520 -1.409508 0.128924 0.252675 0.111740 0.092023 0.000000 0.000000 0.000000 5.892802 0.831449 0.615129 21.666168 7.820390 9.038800 -29.846018 -33.142113 -8.691078 0.000000 0.000000 0.000000 5.241105 -0.563373 -0.751969 4.851615 -0.148900 4.959631 6.190901 -9.495824 0.989576 -7.832291 -9.698437 -12.249690 22.890937 -72.559661 21.358054 0.000000 0.000000 0.000000 5.002176 -0.643000 -0.217037 2.404406 -2.675311 6.023899 5.338786 3.353287 -0.935276 -22.885317 3.888107 27.734637 -31.486103 77.210685 29.264629 0.000000 0.000000 0.000000 
